<svg width="32" height="32" viewBox="0 0 32 32" fill="none" xmlns="http://www.w3.org/2000/svg">
<g id="Buy">
<g id="Iconly/Bold/Buy">
<g id="Buy_2">
<path id="Vector" d="M9.90159 25.2104C11.0074 25.2104 11.9134 26.1357 11.9134 27.2787C11.9134 28.408 11.0074 29.3333 9.90159 29.3333C8.78246 29.3333 7.8765 28.408 7.8765 27.2787C7.8765 26.1357 8.78246 25.2104 9.90159 25.2104ZM24.8899 25.2104C25.9957 25.2104 26.9017 26.1357 26.9017 27.2787C26.9017 28.408 25.9957 29.3333 24.8899 29.3333C23.7708 29.3333 22.8648 28.408 22.8648 27.2787C22.8648 26.1357 23.7708 25.2104 24.8899 25.2104ZM3.70414 2.66679L3.83991 2.67828L7.01744 3.16676C7.47042 3.24976 7.80349 3.62939 7.84346 4.09202L8.09659 7.13994C8.13656 7.57672 8.48296 7.90328 8.90929 7.90328H26.9019C27.7146 7.90328 28.2476 8.18903 28.7805 8.81494C29.3134 9.44085 29.4067 10.3389 29.2867 11.1539L28.0211 20.08C27.7813 21.7958 26.3424 23.0599 24.6504 23.0599H10.115C8.34307 23.0599 6.87754 21.6734 6.73099 19.8773L5.50528 5.0445L3.49352 4.69072C2.9606 4.59547 2.58755 4.06481 2.68082 3.52054C2.77408 2.96402 3.29367 2.59528 3.83991 2.67828L3.70414 2.66679ZM22.5187 12.9364H18.8282C18.2687 12.9364 17.829 13.3855 17.829 13.9569C17.829 14.5148 18.2687 14.9775 18.8282 14.9775H22.5187C23.0783 14.9775 23.5179 14.5148 23.5179 13.9569C23.5179 13.3855 23.0783 12.9364 22.5187 12.9364Z" fill="#DE8556"/>
</g>
</g>
</g>
</svg>
