<svg width="32" height="32" viewBox="0 0 32 32" fill="none" xmlns="http://www.w3.org/2000/svg">
<g id="Calling">
<g id="Iconly/Bold/Calling">
<g id="Group">
<g id="Calling_2">
<path id="Fill-1" d="M19.224 7.31988C18.5893 7.20263 18.0064 7.60768 17.8855 8.22726C17.7647 8.84683 18.171 9.45175 18.7885 9.573C20.6475 9.93542 22.0829 11.3744 22.4468 13.2398V13.2411C22.5503 13.7781 23.0231 14.1685 23.5675 14.1685C23.6405 14.1685 23.7136 14.1619 23.7879 14.1485C24.4054 14.0246 24.8117 13.421 24.6909 12.8001C24.1478 10.014 22.0033 7.86218 19.224 7.31988Z" fill="#DE8556"/>
<path id="Fill-3" d="M19.141 2.6772C18.8435 2.63456 18.5448 2.7225 18.3071 2.9117C18.0627 3.10357 17.91 3.38072 17.8768 3.69117C17.8065 4.31874 18.2593 4.88635 18.886 4.95697C23.2082 5.4393 26.5677 8.80632 27.0537 13.142C27.1188 13.7229 27.6061 14.1613 28.1877 14.1613C28.2316 14.1613 28.2741 14.1586 28.3179 14.1533C28.622 14.12 28.8928 13.9694 29.0841 13.7296C29.2739 13.4898 29.3603 13.1913 29.3257 12.8862C28.7202 7.47657 24.5334 3.27812 19.141 2.6772Z" fill="#DE8556"/>
</g>
</g>
<g id="Call">
<path id="Stroke-1" fill-rule="evenodd" clip-rule="evenodd" d="M14.7088 17.2965C20.0276 22.6138 21.2342 16.4623 24.6207 19.8464C27.8855 23.1103 29.762 23.7643 25.6255 27.8996C25.1074 28.316 21.8153 33.3257 10.246 21.7596C-1.3248 10.192 3.68195 6.89659 4.09846 6.3786C8.24499 2.23179 8.88765 4.11918 12.1525 7.38311C15.539 10.7687 9.39005 11.9792 14.7088 17.2965Z" fill="#DE8556"/>
</g>
</g>
</g>
</svg>
