<svg width="32" height="32" viewBox="0 0 32 32" fill="none" xmlns="http://www.w3.org/2000/svg">
<g id="Graph">
<g id="Iconly/Bold/Graph">
<g id="Graph_2">
<path id="Vector" d="M11.9413 6.61275C12.5948 6.49043 13.25 6.81672 13.5351 7.40647C13.6061 7.51348 13.6629 7.62893 13.7042 7.75002C13.8853 10.5458 14.0785 13.2942 14.2596 16.0426C14.2555 16.3283 14.3004 16.6126 14.3924 16.8837C14.6091 17.4171 15.1483 17.7555 15.7327 17.7248L24.6076 17.1562L24.668 17.1799L24.8299 17.1915C25.1508 17.2326 25.4499 17.379 25.677 17.6095C25.9419 17.8783 26.0871 18.2394 26.0809 18.6133C25.731 23.7094 21.9947 27.9674 16.9102 29.0644C11.8257 30.1614 6.6134 27.834 4.11688 23.3519C3.38279 22.061 2.91891 20.6393 2.75244 19.1701C2.68788 18.7348 2.65961 18.295 2.66792 17.8551C2.68475 12.4362 6.54287 7.75883 11.9413 6.61275ZM17.2179 2.66785C23.3123 2.85029 28.4057 7.27448 29.3288 13.1876C29.3346 13.2229 29.3346 13.2589 29.3288 13.2942L29.3271 13.4611C29.3071 13.6818 29.2165 13.8922 29.066 14.0612C28.8779 14.2724 28.6118 14.4014 28.3266 14.4196L18.0873 15.0949L17.9186 15.0982C17.6391 15.0846 17.3711 14.9759 17.1623 14.788C16.9118 14.5625 16.7697 14.2438 16.7711 13.9102L16.0829 3.8525V3.68665C16.0954 3.40378 16.2221 3.13742 16.435 2.9463C16.6479 2.75518 16.9296 2.655 17.2179 2.66785Z" fill="#DE8556"/>
</g>
</g>
</g>
</svg>
