<svg width="15" height="15" viewBox="0 0 15 15" fill="none" xmlns="http://www.w3.org/2000/svg">
<g id="Icon - Ig">
<path id="Union" fill-rule="evenodd" clip-rule="evenodd" d="M12.3242 2.92373C12.59 3.18942 12.7973 3.50767 12.933 3.85811C13.0895 4.27388 13.173 4.71355 13.1798 5.15773C13.2127 5.71872 13.2127 5.90045 13.2127 7.33244V7.33256C13.2127 8.76466 13.205 8.94346 13.1798 9.50739C13.171 9.94587 13.0884 10.3785 12.9342 10.7888C12.7983 11.1392 12.5909 11.4575 12.3251 11.7232C12.0594 11.989 11.7411 12.1964 11.3907 12.3323C10.9805 12.486 10.5472 12.569 10.1093 12.5779C9.54946 12.6102 9.36598 12.6102 7.93446 12.6102C6.50294 12.6102 6.32415 12.6026 5.75963 12.5779C5.32078 12.5635 4.88761 12.4743 4.47877 12.3141C4.12825 12.1785 3.80989 11.9712 3.54402 11.7055C3.27815 11.4399 3.07063 11.1217 2.9347 10.7712C2.78053 10.3603 2.69787 9.9277 2.68908 9.48921C2.65625 8.92822 2.65625 8.7459 2.65625 7.31439C2.65625 5.88228 2.66387 5.70349 2.68908 5.13956C2.69764 4.70157 2.7807 4.26823 2.9347 3.85811C3.07025 3.50757 3.27757 3.18924 3.54338 2.92354C3.80918 2.65784 4.12759 2.45063 4.47818 2.31522C4.8878 2.16081 5.32079 2.07754 5.75846 2.06901C6.31829 2.03735 6.50177 2.03735 7.93329 2.03735C9.3648 2.03735 9.5436 2.04439 10.1081 2.06901C10.5461 2.078 10.9794 2.16125 11.3896 2.31522C11.7401 2.45079 12.0584 2.65805 12.3242 2.92373ZM12.0367 10.4354C12.1536 10.1184 12.2153 9.78367 12.219 9.44584V9.44642H12.2255C12.2507 8.88601 12.2507 8.73242 12.2507 7.30442C12.2507 5.87584 12.2443 5.71932 12.219 5.16184C12.2136 4.82779 12.152 4.49705 12.0367 4.18346C11.9486 3.95546 11.8139 3.74841 11.641 3.57558C11.4682 3.40275 11.2611 3.26796 11.0331 3.17987C10.7197 3.06326 10.3886 3.00158 10.0542 2.99756C9.48732 2.96532 9.34077 2.96532 7.91218 2.96532C6.4836 2.96532 6.32708 2.97235 5.7696 2.99756C5.43547 3.00223 5.1046 3.06388 4.79122 3.17987C4.3287 3.35691 3.96232 3.72094 3.78353 4.18346C3.66667 4.50025 3.605 4.83475 3.60122 5.17239C3.57015 5.74042 3.57015 5.88639 3.57015 7.31497C3.57015 8.74297 3.57601 8.90008 3.60122 9.45697C3.60667 9.79102 3.66831 10.1218 3.78353 10.4354C3.87195 10.6637 4.00733 10.871 4.18091 11.0438C4.35449 11.2166 4.56241 11.351 4.79122 11.4384C5.10444 11.5549 5.43542 11.6166 5.7696 11.6207C6.33704 11.6529 6.48301 11.6529 7.91218 11.6529C9.34018 11.6529 9.49729 11.6465 10.0542 11.6207C10.3885 11.6163 10.7197 11.5547 11.0331 11.4384C11.2612 11.3505 11.4682 11.2158 11.6411 11.0431C11.8139 10.8703 11.9487 10.6633 12.0367 10.4354ZM10.7486 5.13254C11.0976 5.13254 11.3805 4.84961 11.3805 4.50061C11.3805 4.1516 11.0976 3.86868 10.7486 3.86868C10.3996 3.86868 10.1166 4.1516 10.1166 4.50061C10.1166 4.84961 10.3996 5.13254 10.7486 5.13254ZM7.93038 4.60029C7.21148 4.60029 6.52202 4.88587 6.01368 5.39421C5.50534 5.90255 5.21976 6.59201 5.21976 7.31091C5.21976 8.02981 5.50534 8.71927 6.01368 9.22761C6.52202 9.73595 7.21148 10.0215 7.93038 10.0215C8.64928 10.0215 9.33874 9.73595 9.84708 9.22761C10.3554 8.71927 10.641 8.02981 10.641 7.31091C10.641 6.59201 10.3554 5.90255 9.84708 5.39421C9.33874 4.88587 8.64928 4.60029 7.93038 4.60029ZM7.93038 9.07129C7.46334 9.07129 7.01544 8.88576 6.68519 8.55552C6.35495 8.22527 6.16942 7.77736 6.16942 7.31033C6.16942 6.84329 6.35495 6.39538 6.68519 6.06514C7.01544 5.73489 7.46334 5.54936 7.93038 5.54936C8.39742 5.54936 8.84533 5.73489 9.17557 6.06514C9.50582 6.39538 9.69135 6.84329 9.69135 7.31033C9.69135 7.77736 9.50582 8.22527 9.17557 8.55552C8.84533 8.88576 8.39742 9.07129 7.93038 9.07129Z" fill="white"/>
</g>
</svg>
