<svg width="15" height="15" viewBox="0 0 15 15" fill="none" xmlns="http://www.w3.org/2000/svg">
<g id="Icon - Wa">
<path id="Vector" d="M11.6838 3.1541C10.5876 2.05204 9.12792 1.44824 7.57447 1.44824C4.37378 1.44824 1.76516 4.05686 1.76516 7.25755C1.76516 8.28341 2.03481 9.27997 2.53895 10.1593L1.71826 13.1724L4.79585 12.3634C5.64585 12.8265 6.60137 13.0727 7.57447 13.0727C10.7752 13.0727 13.3838 10.4641 13.3838 7.26341C13.3838 5.70997 12.78 4.25031 11.6838 3.1541ZM7.57447 12.0879C6.70688 12.0879 5.85688 11.8534 5.1124 11.4138L4.93654 11.3082L3.10757 11.7889L3.59412 10.0069L3.47688 9.82514C2.99619 9.05721 2.73826 8.16617 2.73826 7.25755C2.73826 4.59617 4.90723 2.42721 7.56861 2.42721C8.85826 2.42721 10.0717 2.93135 10.9803 3.84583C11.8948 4.76031 12.3931 5.97376 12.3931 7.26341C12.4048 9.92479 10.2358 12.0879 7.57447 12.0879ZM10.2241 8.47686C10.0776 8.40652 9.3624 8.05479 9.23344 8.00204C9.09861 7.95514 9.00481 7.93169 8.90516 8.07238C8.8055 8.21893 8.52999 8.54721 8.44792 8.641C8.36585 8.74066 8.27792 8.75238 8.13137 8.67617C7.98481 8.60583 7.51585 8.44755 6.96481 7.95514C6.53102 7.56824 6.24378 7.09341 6.15585 6.94686C6.07378 6.80031 6.14412 6.7241 6.22033 6.6479C6.28481 6.58341 6.36688 6.4779 6.43723 6.39583C6.50757 6.31376 6.53688 6.24928 6.58378 6.15548C6.63068 6.05583 6.60723 5.97376 6.57206 5.90341C6.53688 5.83307 6.24378 5.1179 6.12654 4.82479C6.0093 4.54341 5.88619 4.57859 5.79826 4.57273C5.71033 4.57273 5.61654 4.57273 5.51688 4.57273C5.41723 4.57273 5.26481 4.6079 5.12999 4.75445C5.00102 4.901 4.62585 5.25273 4.62585 5.9679C4.62585 6.68307 5.14757 7.37479 5.21792 7.46859C5.28826 7.56824 6.24378 9.03376 7.69757 9.661C8.04343 9.81341 8.31309 9.90135 8.52412 9.96583C8.86999 10.0772 9.18654 10.0596 9.43861 10.0244C9.71999 9.98341 10.3003 9.67272 10.4176 9.33273C10.5407 8.99272 10.5407 8.70548 10.4996 8.641C10.4586 8.57652 10.3707 8.54721 10.2241 8.47686Z" fill="white"/>
</g>
</svg>
