<svg width="21" height="20" viewBox="0 0 21 20" fill="none" xmlns="http://www.w3.org/2000/svg">
<g id="location (3) 1">
<path id="Location" d="M10.0117 0.833496C5.87622 0.833496 2.51172 4.1057 2.51172 8.12775C2.51172 12.7625 5.60397 15.5588 7.65484 17.4093C8.30734 18.026 9.16309 18.3335 10.017 18.3335C10.869 18.3335 11.7191 18.0271 12.3622 17.4155C14.4127 15.565 17.5117 12.7673 17.5117 8.12775C17.5117 4.1057 14.1472 0.833496 10.0117 0.833496ZM10.0117 11.0454C8.35759 11.0454 7.01172 9.73649 7.01172 8.12775C7.01172 6.519 8.35759 5.21005 10.0117 5.21005C11.6658 5.21005 13.0117 6.519 13.0117 8.12775C13.0117 9.73649 11.6658 11.0454 10.0117 11.0454Z" fill="#123E56"/>
</g>
</svg>
