<svg width="21" height="20" viewBox="0 0 21 20" fill="none" xmlns="http://www.w3.org/2000/svg">
<g id="Message">
<g id="Iconly/Bold/Message">
<g id="Message_2">
<path id="Vector" d="M14.1279 2.5C15.2454 2.5 16.3204 2.94167 17.1112 3.73417C17.9029 4.525 18.3454 5.59167 18.3454 6.70833V13.2917C18.3454 15.6167 16.4537 17.5 14.1279 17.5H5.89538C3.56954 17.5 1.67871 15.6167 1.67871 13.2917V6.70833C1.67871 4.38333 3.56121 2.5 5.89538 2.5H14.1279ZM15.0704 6.83333C14.8954 6.82417 14.7287 6.88333 14.6029 7L10.8454 10C10.362 10.4008 9.66954 10.4008 9.17871 10L5.42871 7C5.16954 6.80833 4.81121 6.83333 4.59538 7.05833C4.37038 7.28333 4.34538 7.64167 4.53621 7.89167L4.64538 8L8.43704 10.9583C8.90371 11.325 9.46954 11.525 10.062 11.525C10.6529 11.525 11.2287 11.325 11.6945 10.9583L15.4537 7.95L15.5204 7.88333C15.7195 7.64167 15.7195 7.29167 15.5112 7.05C15.3954 6.92583 15.2362 6.85 15.0704 6.83333Z" fill="#123E56"/>
</g>
</g>
</g>
</svg>
