<svg width="25" height="24" viewBox="0 0 25 24" fill="none" xmlns="http://www.w3.org/2000/svg">
<g id="Send">
<g id="Iconly/Light-Outline/Send">
<g id="Send_2">
<path id="Fill-1" fill-rule="evenodd" clip-rule="evenodd" d="M10.8167 14.818L14.4737 20.751C14.6337 21.011 14.8837 21.008 14.9847 20.994C15.0857 20.98 15.3287 20.918 15.4167 20.623L19.9897 5.17802C20.0697 4.90502 19.9227 4.71902 19.8567 4.65302C19.7927 4.58702 19.6097 4.44602 19.3447 4.52102L3.88866 9.04702C3.59566 9.13302 3.53166 9.37902 3.51766 9.48002C3.50366 9.58302 3.49966 9.83802 3.75866 10.001L9.75967 13.754L15.0617 8.39602C15.3527 8.10202 15.8277 8.09902 16.1227 8.39002C16.4177 8.68102 16.4197 9.15702 16.1287 9.45102L10.8167 14.818ZM14.9067 22.5C14.2107 22.5 13.5727 22.146 13.1967 21.538L9.31967 15.247L2.96366 11.272C2.27866 10.843 1.92066 10.079 2.03166 9.27602C2.14166 8.47302 2.69266 7.83502 3.46666 7.60802L18.9227 3.08202C19.6337 2.87402 20.3957 3.07102 20.9197 3.59302C21.4437 4.12002 21.6387 4.89002 21.4267 5.60402L16.8537 21.048C16.6247 21.825 15.9847 22.374 15.1837 22.481C15.0897 22.493 14.9987 22.5 14.9067 22.5Z" fill="white"/>
</g>
</g>
</g>
</svg>
